<?xml version="1.0" encoding="utf-8"?>
<!-- Generator: Adobe Illustrator 23.1.0, SVG Export Plug-In . SVG Version: 6.00 Build 0)  -->
<svg version="1.1" id="Layer_1" xmlns="http://www.w3.org/2000/svg" xmlns:xlink="http://www.w3.org/1999/xlink" x="0px" y="0px"
	 viewBox="0 0 49 50" style="enable-background:new 0 0 49 50;" xml:space="preserve">
<style type="text/css">
	.st0{fill:#333333;}
	.st1{fill:#FFFFFF;}
</style>
<g>
	<path class="st0" d="M20,0h9c11,0,20,9,20,20v10c0,11-9,20-20,20h-9C9,50,0,41,0,30V20C0,9,9,0,20,0z"/>
</g>
<g>
	<polygon class="st1" points="9.3,22.1 7.5,22.1 7.5,14 20.5,14 20.5,15.8 9.3,15.8 	"/>
</g>
<g>
	<polygon class="st1" points="41.5,22.1 39.7,22.1 39.7,15.8 28.5,15.8 28.5,14 41.5,14 	"/>
</g>
<g>
	<polygon class="st1" points="20.5,36 7.5,36 7.5,27 9.3,27 9.3,34.2 20.5,34.2 	"/>
</g>
<g>
	<polygon class="st1" points="41.5,36 28.5,36 28.5,34.2 39.7,34.2 39.7,27 41.5,27 	"/>
</g>
</svg>
