<svg width="49" height="50" viewBox="0 0 49 50" fill="none" xmlns="http://www.w3.org/2000/svg">
<rect width="49" height="50" rx="20" fill="#F05348"/>
<path d="M24.0445 38.55C23.6164 38.3462 23.4828 37.987 23.4899 37.4944C23.5094 36.0778 23.497 34.6611 23.497 33.2454C23.497 33.1568 23.497 33.0682 23.497 32.9653C22.646 32.8453 21.8367 32.6243 21.083 32.2108C18.7601 30.939 17.3899 28.9059 17.0821 26.1269C16.9485 24.9236 17.0166 23.6918 17.0228 22.4733C17.0255 21.977 17.3758 21.6645 17.826 21.6692C18.2886 21.6731 18.6062 21.9893 18.6168 22.5133C18.6345 23.4003 18.623 24.2882 18.6248 25.1761C18.6292 26.8614 19.167 28.3286 20.2834 29.5013C21.9189 31.22 23.8835 31.7678 26.0507 30.9952C28.2206 30.2216 29.5041 28.5334 29.8977 26.0945C29.9473 25.7877 29.957 25.4705 29.9605 25.158C29.9694 24.2882 29.9552 23.4184 29.9694 22.5495C29.9782 21.9932 30.3002 21.6616 30.7805 21.6702C31.2591 21.6788 31.5749 22.0236 31.574 22.5734C31.5713 23.6489 31.6032 24.7274 31.5342 25.7982C31.3927 27.9942 30.4665 29.7795 28.9159 31.1905C27.8208 32.187 26.5479 32.7634 25.0928 32.9625C25.0928 33.0568 25.0928 33.1511 25.0928 33.2464C25.0928 34.663 25.0804 36.0797 25.0998 37.4954C25.1069 37.9879 24.9725 38.3462 24.5452 38.551C24.378 38.55 24.2117 38.55 24.0445 38.55Z" fill="white"/>
<path d="M28.616 20.1631C28.616 21.7674 28.624 23.3727 28.6142 24.977C28.6018 26.9796 27.5262 28.6297 25.8048 29.1374C24.2958 29.5824 22.8256 29.4652 21.566 28.32C20.6009 27.4436 20.1365 26.3051 20.1392 24.9408C20.1436 21.7588 20.1347 18.5759 20.148 15.3939C20.1498 14.9518 20.1993 14.4955 20.3081 14.0696C20.7699 12.2605 22.3214 11.0172 24.0667 11.001C24.7602 10.9943 25.4448 11.0134 26.1029 11.2954C27.6421 11.9537 28.601 13.4847 28.6125 15.3501C28.624 16.9534 28.6151 18.5587 28.616 20.1631ZM27.0043 20.1926H27.0034C27.0034 18.5435 27.0096 16.8934 27.0017 15.2443C26.9955 14.0468 26.2701 13.056 25.1874 12.8045C24.8106 12.7168 24.4099 12.7139 24.0215 12.7292C22.7212 12.7806 21.7447 13.8791 21.7429 15.2796C21.7394 18.534 21.7394 21.7874 21.7429 25.0418C21.7438 26.2051 22.386 27.1758 23.3944 27.4855C23.7314 27.5893 24.0985 27.6007 24.4532 27.615C26.0525 27.6798 27.0565 26.3756 27.014 24.8713C26.9698 23.3136 27.0043 21.7522 27.0043 20.1926Z" fill="white"/>
</svg>
