<svg width="49" height="50" viewBox="0 0 49 50" fill="none" xmlns="http://www.w3.org/2000/svg">
<rect width="49" height="50" rx="20" fill="#333333"/>
<rect x="33.7625" y="14.1324" width="1.76413" height="27.9482" rx="0.882066" transform="rotate(45 33.7625 14.1324)" fill="white" fill-opacity="0.4"/>
<path fill-rule="evenodd" clip-rule="evenodd" d="M18.7874 26.971C18.6343 26.4058 18.5581 25.8063 18.5564 25.1762C18.5559 24.8987 18.5566 24.6212 18.5574 24.3437C18.559 23.7334 18.5606 23.1232 18.5485 22.5134C18.5378 21.9894 18.2203 21.6731 17.7577 21.6693C17.3074 21.6645 16.9571 21.977 16.9545 22.4734C16.953 22.7593 16.9482 23.046 16.9433 23.3329C16.9274 24.2685 16.9115 25.2061 17.0137 26.127C17.0984 26.8917 17.2636 27.6 17.5069 28.2514L18.7874 26.971ZM20.3891 31.8348C20.5892 31.9668 20.7978 32.0921 21.0146 32.2109C21.7683 32.6243 22.5777 32.8454 23.4286 32.9654V33.2455C23.4286 33.6418 23.4296 34.0383 23.4306 34.4347C23.4331 35.4544 23.4356 36.4745 23.4216 37.4945C23.4145 37.9871 23.548 38.3462 23.9762 38.5501C24.1434 38.5501 24.3097 38.5501 24.4768 38.551C24.9041 38.3462 25.0385 37.988 25.0315 37.4955C25.0175 36.4762 25.02 35.4564 25.0225 34.4365C25.0234 34.0398 25.0244 33.6431 25.0244 33.2464V32.9625C26.4795 32.7634 27.7524 32.187 28.8475 31.1905C30.3982 29.7796 31.3243 27.9942 31.4658 25.7983C31.5172 25.0004 31.5127 24.1983 31.5081 23.3963C31.5065 23.1219 31.505 22.8476 31.5056 22.5734C31.5065 22.0237 31.1907 21.6788 30.7122 21.6703C30.6527 21.6692 30.5957 21.6733 30.5413 21.6825L29.9301 22.2937C29.9124 22.3726 29.9025 22.458 29.901 22.5496C29.8932 23.0289 29.894 23.5086 29.8948 23.9884C29.8955 24.3782 29.8961 24.7681 29.8922 25.1581C29.8886 25.4706 29.8789 25.7878 29.8294 26.0946C29.4357 28.5335 28.1522 30.2216 25.9824 30.9952C24.3953 31.561 22.9169 31.4187 21.5968 30.627L20.3891 31.8348Z" fill="white" fill-opacity="0.4"/>
<path fill-rule="evenodd" clip-rule="evenodd" d="M28.5503 17.2078C28.5502 16.5884 28.5488 15.9691 28.5443 15.3501C28.5328 13.4847 27.574 11.9537 26.0348 11.2954C25.3767 11.0134 24.692 10.9943 23.9985 11.001C22.2533 11.0172 20.7018 12.2605 20.24 14.0696C20.1312 14.4955 20.0817 14.9518 20.0799 15.3939C20.0716 17.3826 20.072 19.3717 20.0723 21.3608C20.0725 22.5542 20.0727 23.7476 20.0711 24.9408C20.0706 25.1825 20.0848 25.417 20.1138 25.6443L21.6738 24.0842C21.6713 21.1492 21.6716 18.2148 21.6748 15.2796C21.6765 13.8791 22.6531 12.7806 23.9534 12.7292C24.3418 12.7139 24.7425 12.7168 25.1193 12.8045C26.202 13.056 26.9274 14.0468 26.9335 15.2443C26.9391 16.3915 26.9378 17.5392 26.9365 18.6868C26.9364 18.7318 26.9364 18.7768 26.9363 18.8218L28.5503 17.2078ZM28.5506 23.6729L26.9301 25.2934C26.7995 26.542 25.9308 27.5617 24.6084 27.6152L23.0173 29.2063C23.8816 29.473 24.8017 29.4131 25.7367 29.1374C27.4581 28.6297 28.5337 26.9796 28.5461 24.977C28.5487 24.5424 28.5501 24.1076 28.5506 23.6729Z" fill="white" fill-opacity="0.4"/>
</svg>
