<svg width="49" height="50" viewBox="0 0 49 50" fill="none" xmlns="http://www.w3.org/2000/svg">
<rect width="49" height="50" rx="20" fill="#F05348"/>
<g clip-path="url(#clip0)">
<path d="M36.9998 25.025C36.9929 31.8633 31.3334 37.5086 24.4946 37.4999C17.584 37.4922 11.9859 31.8711 11.9998 24.9541C12.0136 18.1374 17.6704 12.4939 24.4816 12.4999C31.3326 12.506 37.0076 18.1833 36.9998 25.025ZM34.8614 25.006C34.8588 19.3097 30.1921 14.6413 24.4946 14.6379C18.7997 14.6344 14.1165 19.3063 14.1131 24.9948C14.1096 30.6919 18.7833 35.3845 24.4609 35.3862C30.186 35.3871 34.8631 30.7196 34.8614 25.006Z" fill="white"/>
<path d="M29.3578 25.0207C29.3552 27.7051 27.1684 29.8923 24.4887 29.8923C21.8177 29.8923 19.611 27.6912 19.6067 25.0216C19.6024 22.3217 21.7944 20.1397 24.5095 20.1406C27.1918 20.1423 29.3604 22.3243 29.3578 25.0207Z" fill="white"/>
</g>
<defs>
<clipPath id="clip0">
<rect width="25" height="25" fill="white" transform="translate(12 12.5)"/>
</clipPath>
</defs>
</svg>
