<svg width="49" height="50" viewBox="0 0 49 50" fill="none" xmlns="http://www.w3.org/2000/svg">
<rect width="49" height="50" rx="20" fill="#F05348"/>
<path d="M19.5737 13C22.8593 13 26.1449 13 29.4306 13C29.4637 13.017 29.495 13.0416 29.5307 13.0484C30.5493 13.2573 31.2235 13.8628 31.6018 14.8241C31.9639 15.7454 32.3439 16.66 32.7001 17.5839C32.7722 17.7699 32.8774 17.8455 33.0606 17.8752C34.242 18.0654 35.4226 18.2641 36.604 18.4569C38.062 18.6938 39 19.7765 39 21.2303C39.0008 25.7463 39.0025 30.2623 38.9992 34.7792C38.9983 36.2771 37.7948 37.4881 36.3038 37.4889C28.4408 37.4915 20.577 37.4915 12.714 37.4889C11.4333 37.4889 10.3435 36.6032 10.0636 35.3532C10.0492 35.2904 10.0221 35.2309 10.0008 35.1698C10 30.3685 10 25.568 10 20.7675C10.0187 20.7251 10.045 20.6852 10.0551 20.641C10.3291 19.4649 11.05 18.7278 12.2357 18.5002C13.4383 18.2692 14.6503 18.0807 15.8597 17.8871C16.0963 17.8497 16.2354 17.7758 16.3279 17.5313C16.6798 16.5963 17.0564 15.6699 17.433 14.7442C17.779 13.895 18.3939 13.338 19.2811 13.0892C19.3786 13.062 19.4761 13.0297 19.5737 13ZM24.4869 35.6844C28.3848 35.6844 32.2828 35.6853 36.1817 35.6836C36.8169 35.6836 37.1952 35.3133 37.1952 34.6875C37.1969 30.2097 37.1969 25.7319 37.1952 21.2533C37.1952 20.6784 36.8941 20.3421 36.3284 20.2495C34.8128 20.0007 33.298 19.7434 31.7816 19.4997C31.5696 19.4657 31.4644 19.3749 31.3864 19.1753C30.9106 17.955 30.4195 16.7398 29.9335 15.5229C29.7198 14.988 29.4552 14.8088 28.8776 14.8088C25.9702 14.8088 23.0637 14.8088 20.1563 14.8088C19.5372 14.8088 19.2878 14.9769 19.0605 15.5476C18.5856 16.7381 18.1039 17.9262 17.6416 19.1218C17.5492 19.3613 17.4203 19.47 17.1684 19.5099C15.6986 19.7451 14.2305 19.9948 12.7615 20.2402C12.0525 20.3591 11.8082 20.647 11.8082 21.3654C11.8082 25.7582 11.8082 30.1511 11.8082 34.544C11.8082 35.3549 12.133 35.6836 12.9337 35.6836C16.785 35.6844 20.6364 35.6844 24.4869 35.6844Z" fill="white"/>
<path d="M24.5124 33.8604C20.4982 33.863 17.2576 30.6259 17.2559 26.6117C17.2542 22.5968 20.494 19.3546 24.5048 19.3554C28.513 19.3563 31.752 22.6044 31.7487 26.6185C31.7453 30.6174 28.5063 33.8587 24.5124 33.8604ZM24.4827 32.055C27.4868 32.0576 29.9354 29.6238 29.943 26.627C29.9515 23.6268 27.5106 21.1667 24.5201 21.1608C21.5202 21.1557 19.0666 23.5946 19.059 26.5888C19.0522 29.5898 21.4956 32.0525 24.4827 32.055Z" fill="white"/>
</svg>
