<svg width="50" height="50" viewBox="0 0 50 50" fill="none" xmlns="http://www.w3.org/2000/svg">
<rect width="50" height="50" rx="20" fill="#F05348"/>
<g clip-path="url(#clip0)">
<path d="M28.0004 39.0005C26.044 39.0005 24.1349 39.0063 22.2257 38.9869C22.1049 38.986 21.9245 38.8157 21.8773 38.6841C21.5431 37.7534 21.2494 36.8072 20.9114 35.8774C20.8425 35.6888 20.664 35.5195 20.4978 35.3937C19.869 34.9206 19.2213 34.8983 18.5028 35.2428C17.8721 35.5456 17.1847 35.7226 16.5304 35.978C16.2575 36.0845 16.0866 36.069 15.8883 35.8097C14.7949 34.3769 13.6836 32.9576 12.5647 31.545C12.3976 31.3341 12.4212 31.1909 12.5515 30.9849C13.0397 30.2167 13.4976 29.4282 13.9952 28.6668C14.201 28.3514 14.235 28.0679 14.1822 27.6886C14.0868 27.0066 13.7799 26.5722 13.1889 26.249C12.493 25.8688 11.8368 25.4102 11.1806 24.9594C11.0739 24.8858 10.9785 24.6633 11.0049 24.5375C11.3911 22.7177 11.7915 20.9017 12.2173 19.0916C12.2503 18.9493 12.4902 18.782 12.6507 18.7597C13.5514 18.6339 14.4569 18.5353 15.3624 18.4579C15.6693 18.4317 15.8647 18.304 16.0819 18.0834C16.6304 17.5252 16.7758 16.9166 16.6087 16.1417C16.452 15.4151 16.4171 14.6585 16.3595 13.9126C16.3491 13.7781 16.4558 13.5585 16.5681 13.5014C18.1987 12.6781 19.8426 11.8799 21.476 11.0624C21.6932 10.954 21.8188 10.9995 21.9746 11.163C22.6421 11.8625 23.3115 12.562 24.0046 13.2344C24.1575 13.3824 24.404 13.4656 24.6192 13.5014C25.3774 13.6291 25.9817 13.3989 26.4831 12.7507C26.925 12.1798 27.4877 11.7067 27.9853 11.1795C28.1496 11.0043 28.278 10.9434 28.5197 11.0653C30.1258 11.8722 31.7394 12.6626 33.3559 13.4472C33.5938 13.5624 33.6712 13.6833 33.6306 13.9697C33.505 14.8617 33.4455 15.7624 33.3162 16.6535C33.2539 17.0869 33.3785 17.3975 33.6297 17.7351C33.963 18.1821 34.3038 18.4743 34.9034 18.4917C35.7201 18.5149 36.5331 18.6678 37.3488 18.7529C37.599 18.7791 37.7407 18.8661 37.8011 19.1457C38.1778 20.9046 38.5612 22.6625 38.9728 24.4137C39.0531 24.7562 38.9521 24.9003 38.6886 25.0619C37.8946 25.5476 37.109 26.0468 36.3367 26.5683C36.1714 26.6795 36.0392 26.8895 35.9609 27.083C35.6597 27.8299 35.772 28.4994 36.2734 29.1534C36.7134 29.7281 37.0458 30.3869 37.4404 30.9984C37.5773 31.2103 37.5698 31.3612 37.4102 31.5624C36.2838 32.9885 35.1649 34.4204 34.0555 35.861C33.8922 36.0729 33.7534 36.0835 33.5239 35.9974C32.6288 35.6617 31.73 35.3337 30.8216 35.0377C30.6215 34.9728 30.3675 35.0144 30.1541 35.0715C29.3921 35.2766 29.005 35.8087 28.8096 36.5885C28.6075 37.3964 28.2837 38.1742 28.0004 39.0005ZM31.3296 15.0368C31.2862 14.9933 31.2031 14.8588 31.0832 14.7969C30.4043 14.4476 29.7103 14.1284 29.0343 13.7733C28.7803 13.6398 28.617 13.6611 28.4177 13.8768C27.9164 14.4215 27.4018 14.9546 26.8664 15.4645C26.721 15.6028 26.4859 15.7054 26.2886 15.7121C25.4388 15.7402 24.5871 15.7431 23.7383 15.716C23.5278 15.7092 23.2766 15.6047 23.1218 15.4586C22.5732 14.942 22.0529 14.3925 21.5327 13.8449C21.3797 13.6833 21.2589 13.6195 21.036 13.7365C20.3326 14.1032 19.6179 14.4496 18.9003 14.7872C18.6831 14.8888 18.6387 15.0175 18.6699 15.2516C18.77 16.0082 18.8616 16.7667 18.9154 17.5281C18.9305 17.7438 18.8625 18.0109 18.7388 18.1831C18.2781 18.8216 17.7616 19.4176 17.3027 20.0581C17.0591 20.3977 16.7787 20.5428 16.3727 20.5699C15.6891 20.6153 15.0074 20.7063 14.3304 20.8117C14.2001 20.8321 14.0207 20.9888 13.9867 21.1165C13.7875 21.8828 13.6336 22.6616 13.4447 23.4317C13.3786 23.7036 13.4665 23.8429 13.6921 23.9803C14.3332 24.3702 14.9668 24.7736 15.5852 25.2003C15.7391 25.3067 15.8826 25.505 15.928 25.6879C16.1404 26.5451 16.3311 27.409 16.4954 28.2778C16.5332 28.4752 16.4888 28.7306 16.3906 28.9048C16.0167 29.5646 15.6135 30.2089 15.2009 30.8455C15.0621 31.0594 15.0612 31.2045 15.2245 31.4047C15.7127 32.0026 16.1914 32.6093 16.6474 33.2323C16.8183 33.4655 16.976 33.4694 17.2139 33.3794C17.9117 33.1143 18.6123 32.854 19.3223 32.6247C19.4989 32.5677 19.7387 32.5744 19.9058 32.6509C20.7075 33.0195 21.5006 33.4113 22.2814 33.8244C22.4429 33.9105 22.5911 34.104 22.6582 34.282C22.9244 34.9941 23.1661 35.7168 23.3946 36.4424C23.4777 36.7046 23.608 36.7956 23.8762 36.7898C24.6221 36.7733 25.368 36.7733 26.1139 36.7946C26.3887 36.8023 26.5086 36.6959 26.5898 36.4395C26.8202 35.7139 27.0581 34.9902 27.3272 34.2791C27.3989 34.0905 27.5651 33.8912 27.7398 33.7993C28.5074 33.3939 29.2892 33.0146 30.0786 32.6547C30.2476 32.5783 30.4865 32.5638 30.6621 32.6218C31.3712 32.8531 32.0708 33.1162 32.7686 33.3833C33.0046 33.4732 33.1632 33.4713 33.3341 33.2372C33.7902 32.6141 34.2689 32.0065 34.7561 31.4086C34.9185 31.2093 34.9213 31.0652 34.7825 30.8494C34.3624 30.2002 33.9545 29.5414 33.5711 28.869C33.4786 28.7074 33.4399 28.4665 33.4758 28.2827C33.6448 27.4148 33.8327 26.5499 34.0498 25.6937C34.0989 25.4992 34.2576 25.2922 34.4228 25.177C35.0393 24.7494 35.6738 24.346 36.3159 23.958C36.5378 23.8235 36.5878 23.6765 36.5312 23.4365C36.3555 22.6954 36.1724 21.9553 36.0336 21.2065C35.9769 20.9027 35.8372 20.8011 35.5681 20.7759C34.8703 20.7092 34.1716 20.6463 33.4786 20.5457C33.2624 20.5147 33.0008 20.4218 32.8668 20.2622C32.2832 19.5676 31.7309 18.8448 31.187 18.1163C31.0926 17.9896 31.0426 17.7845 31.0567 17.6229C31.1285 16.7996 31.2276 15.9811 31.3296 15.0368Z" fill="white"/>
<path d="M25.0204 19.3514C28.0408 19.3756 30.3891 21.8262 30.3598 24.9221C30.3315 27.902 27.8775 30.3081 24.8929 30.283C22.0131 30.2588 19.647 27.7549 19.68 24.7673C19.7121 21.7314 22.0821 19.3281 25.0204 19.3514ZM21.592 24.8225C21.5854 26.7197 23.1141 28.3016 24.9666 28.3132C26.8852 28.3258 28.4138 26.7836 28.4308 24.8186C28.4478 22.9243 26.9154 21.3163 25.078 21.2999C23.1405 21.2825 21.5986 22.8401 21.592 24.8225Z" fill="white"/>
</g>
<defs>
<clipPath id="clip0">
<rect width="28" height="28" fill="white" transform="translate(11 11)"/>
</clipPath>
</defs>
</svg>
